<svg xmlns:xlink="http://www.w3.org/1999/xlink" data-v-5ca82b5f="" xmlns="http://www.w3.org/2000/svg" width="32" height="32" fill="#431A86" viewBox="0 0 32 32" aria-labelledby="domain" preserveAspectRatio="xMidYMid meet" role="presentation" class="y-icon overview-advanced-steps-list-item__icon"><!----> <g fill="#431A86"><path fill-rule="evenodd" clip-rule="evenodd" d="M26.9995 15.9507C26.9995 9.87582 22.0749 4.95117 16 4.95117C9.92514 4.95117 5.00049 9.87582 5.00049 15.9507C5.00049 21.6834 9.38604 26.3918 14.9852 26.904C15.3083 26.9982 15.6467 27.0488 15.9998 27.0488C16.3528 27.0488 16.6911 26.9982 17.0141 26.9041C22.6136 26.3922 26.9995 21.6836 26.9995 15.9507ZM20.2693 23.8751C21.5295 23.1947 22.609 22.2224 23.4172 21.0488H21.3691C21.1208 21.9699 20.8044 22.8177 20.4297 23.5671C20.3778 23.6709 20.3244 23.7736 20.2693 23.8751ZM21.7824 19.0488H24.452C24.8062 18.0829 24.9995 17.0394 24.9995 15.9507C24.9995 14.9354 24.8314 13.9593 24.5214 13.0488H21.7824C21.9246 14.0057 21.9998 15.0129 21.9998 16.0488C21.9998 17.0848 21.9246 18.0919 21.7824 19.0488ZM21.3691 11.0488C21.1208 10.1278 20.8044 9.27997 20.4297 8.53055C20.3297 8.33051 20.2237 8.13429 20.1118 7.94327C21.5101 8.66275 22.6955 9.73775 23.5486 11.0488H21.3691ZM19.2866 11.0488H12.7129C12.8992 10.4538 13.1166 9.90916 13.3587 9.42497C14.2103 7.72163 15.2019 7.04883 15.9998 7.04883C16.7976 7.04883 17.7892 7.72163 18.6409 9.42497C18.883 9.90916 19.1003 10.4538 19.2866 11.0488ZM12.2416 13.0488H19.7579C19.9137 13.9839 19.9998 14.9924 19.9998 16.0488C19.9998 17.1053 19.9137 18.1138 19.7579 19.0488H12.2416C12.0858 18.1138 11.9998 17.1053 11.9998 16.0488C11.9998 14.9924 12.0858 13.9839 12.2416 13.0488ZM10.6304 11.0488C10.8787 10.1278 11.1951 9.27997 11.5698 8.53055C11.6698 8.33064 11.7757 8.13454 11.8875 7.94363C10.4895 8.66311 9.30434 9.73796 8.45136 11.0488H10.6304ZM7.47858 13.0488H10.2171C10.0749 14.0057 9.99976 15.0129 9.99976 16.0488C9.99976 17.0848 10.0749 18.0919 10.2171 19.0488H7.54797C7.1938 18.0829 7.00049 17.0394 7.00049 15.9507C7.00049 14.9354 7.16863 13.9593 7.47858 13.0488ZM10.6304 21.0488H8.58278C9.39081 22.2222 10.4701 23.1943 11.73 23.8747C11.675 23.7733 11.6216 23.6707 11.5698 23.5671C11.1951 22.8177 10.8787 21.9699 10.6304 21.0488ZM19.2866 21.0488H12.7129C12.8992 21.6438 13.1166 22.1885 13.3587 22.6727C14.0086 23.9725 14.74 24.6722 15.4046 24.9308C15.6014 24.9437 15.7999 24.9502 16 24.9502C16.1999 24.9502 16.3982 24.9437 16.5948 24.9308C17.2595 24.6723 17.9909 23.9726 18.6409 22.6727C18.883 22.1885 19.1003 21.6438 19.2866 21.0488Z" fill="#431A86"></path></g></svg>