<svg xmlns:xlink="http://www.w3.org/1999/xlink" data-v-0c0154da="" xmlns="http://www.w3.org/2000/svg" width="30" height="30" fill="#141316" viewBox="0 0 32 32" aria-labelledby="idea" preserveAspectRatio="xMidYMid meet" role="presentation" class="y-icon helper-link-specialist--icon">
        <g fill="#141316">
            <path fill-rule="evenodd" clip-rule="evenodd" d="M16 20C18.7614 20 21 17.7614 21 15C21 12.2386 18.7614 10 16 10C13.2386 10 11 12.2386 11 15C11 17.7614 13.2386 20 16 20ZM16 22C19.866 22 23 18.866 23 15C23 11.134 19.866 8 16 8C12.134 8 9 11.134 9 15C9 18.866 12.134 22 16 22Z" fill="#141316"></path>
            <path fill-rule="evenodd" clip-rule="evenodd" d="M15 15C15 15.5523 15.4477 16 16 16V18C14.3431 18 13 16.6569 13 15C13 13.3431 14.3431 12 16 12V14C15.4477 14 15 14.4477 15 15Z" fill="#141316"></path>
            <path fill-rule="evenodd" clip-rule="evenodd" d="M12 22.3057V20H14V22.3057C14 22.7946 14.3534 23.2118 14.8356 23.2921L15.178 23.3492C15.7222 23.4399 16.2778 23.4399 16.822 23.3492L17.1644 23.2921C17.6466 23.2118 18 22.7946 18 22.3057V20H20V22.3057C20 23.7723 18.9398 25.0238 17.4932 25.2649L17.1508 25.322C16.3889 25.449 15.6111 25.449 14.8492 25.322L14.5068 25.2649C13.0602 25.0238 12 23.7723 12 22.3057Z" fill="#141316"></path>
            <path d="M7 15C7 15.5523 6.55228 16 6 16C5.44772 16 5 15.5523 5 15C5 14.4477 5.44772 14 6 14C6.55228 14 7 14.4477 7 15Z" fill="#141316"></path>
            <path d="M27 15C27 15.5523 26.5523 16 26 16C25.4477 16 25 15.5523 25 15C25 14.4477 25.4477 14 26 14C26.5523 14 27 14.4477 27 15Z" fill="#141316"></path>
            <path d="M10 8C10 8.55228 9.55228 9 9 9C8.44772 9 8 8.55228 8 8C8 7.44772 8.44772 7 9 7C9.55228 7 10 7.44772 10 8Z" fill="#141316"></path>
            <path d="M17 5C17 5.55228 16.5523 6 16 6C15.4477 6 15 5.55228 15 5C15 4.44772 15.4477 4 16 4C16.5523 4 17 4.44772 17 5Z" fill="#141316"></path>
            <path d="M24 8C24 8.55228 23.5523 9 23 9C22.4477 9 22 8.55228 22 8C22 7.44772 22.4477 7 23 7C23.5523 7 24 7.44772 24 8Z" fill="#141316"></path>
    </g>
</svg>