<svg data-v-764c4cf7="" class="" width="22px" height="16px" viewBox="0 0 22 16" fill="var(--blue-darker)" xmlns="http://www.w3.org/2000/svg" aria-hidden="true"><!----><path d="M1.5 1C1.22386 1 1 1.22386 1 1.5V4.5C1 4.77614 0.776142 5 0.5 5C0.223858 5 0 4.77614 0 4.5V1.5C0 0.671573 0.671573 0 1.5 0H4.5C4.77614 0 5 0.223858 5 0.5C5 0.776142 4.77614 1 4.5 1H1.5ZM17 0.5C17 0.223858 17.2239 0 17.5 0H20.5C21.3284 0 22 0.671573 22 1.5V4.5C22 4.77614 21.7761 5 21.5 5C21.2239 5 21 4.77614 21 4.5V1.5C21 1.22386 20.7761 1 20.5 1H17.5C17.2239 1 17 0.776142 17 0.5ZM3.5 3C3.77614 3 4 3.22386 4 3.5V12.5C4 12.7761 3.77614 13 3.5 13C3.22386 13 3 12.7761 3 12.5V3.5C3 3.22386 3.22386 3 3.5 3ZM6.5 3C6.77614 3 7 3.22386 7 3.5V12.5C7 12.7761 6.77614 13 6.5 13C6.22386 13 6 12.7761 6 12.5V3.5C6 3.22386 6.22386 3 6.5 3ZM9.5 3C9.77614 3 10 3.22386 10 3.5V12.5C10 12.7761 9.77614 13 9.5 13C9.22386 13 9 12.7761 9 12.5V3.5C9 3.22386 9.22386 3 9.5 3ZM12.5 3C12.7761 3 13 3.22386 13 3.5V12.5C13 12.7761 12.7761 13 12.5 13C12.2239 13 12 12.7761 12 12.5V3.5C12 3.22386 12.2239 3 12.5 3ZM15.5 3C15.7761 3 16 3.22386 16 3.5V12.5C16 12.7761 15.7761 13 15.5 13C15.2239 13 15 12.7761 15 12.5V3.5C15 3.22386 15.2239 3 15.5 3ZM0.5 11C0.776142 11 1 11.2239 1 11.5V14.5C1 14.7761 1.22386 15 1.5 15H4.5C4.77614 15 5 15.2239 5 15.5C5 15.7761 4.77614 16 4.5 16H1.5C0.671573 16 0 15.3284 0 14.5V11.5C0 11.2239 0.223858 11 0.5 11ZM21.5 11C21.7761 11 22 11.2239 22 11.5V14.5C22 15.3284 21.3284 16 20.5 16H17.5C17.2239 16 17 15.7761 17 15.5C17 15.2239 17.2239 15 17.5 15H20.5C20.7761 15 21 14.7761 21 14.5V11.5C21 11.2239 21.2239 11 21.5 11Z" fill-rule="evenodd" clip-rule="evenodd"/><path d="M18.5 3C18.7761 3 19 3.22386 19 3.5V12.5C19 12.7761 18.7761 13 18.5 13C18.2239 13 18 12.7761 18 12.5V3.5C18 3.22386 18.2239 3 18.5 3Z" fill-rule="evenodd" clip-rule="evenodd"/></svg>